<svg xmlns="http://www.w3.org/2000/svg" width="148" height="148" viewBox="0 0 148 148">
    <g fill="none" fill-rule="evenodd">
        <path fill="#828282" fill-rule="nonzero" d="M145.3.5H3.2A2.45 2.45 0 0 0 .75 2.95v88.2A2.45 2.45 0 0 0 3.2 93.6h24.5v4.44c-4.386 2.545-7.35 7.283-7.35 12.71 0 4.765 2.29 8.996 5.816 11.684C18.422 125.859 13 133.604 13 142.6v2.45a2.45 2.45 0 0 0 2.45 2.45H133.05a2.45 2.45 0 0 0 2.45-2.45v-2.45c0-8.996-5.422-16.74-13.166-20.166 3.525-2.688 5.816-6.919 5.816-11.684 0-5.427-2.965-10.165-7.35-12.71V93.6h24.5a2.45 2.45 0 0 0 2.45-2.45V2.95A2.45 2.45 0 0 0 145.3.5zM25.25 110.75c0-5.405 4.395-9.8 9.8-9.8 5.405 0 9.8 4.395 9.8 9.8 0 5.405-4.395 9.8-9.8 9.8-5.405 0-9.8-4.395-9.8-9.8zM17.9 142.6c0-9.457 7.695-17.15 17.15-17.15 9.455 0 17.15 7.693 17.15 17.15H17.9zm26.034-20.166c3.525-2.688 5.816-6.919 5.816-11.684 0-3.768-1.436-7.196-3.773-9.8h17.348c-2.34 2.604-3.775 6.032-3.775 9.8 0 4.765 2.29 8.996 5.816 11.684a22.16 22.16 0 0 0-10.716 10.109 22.16 22.16 0 0 0-10.716-10.109zM64.45 110.75c0-5.405 4.395-9.8 9.8-9.8 5.405 0 9.8 4.395 9.8 9.8 0 5.405-4.395 9.8-9.8 9.8-5.405 0-9.8-4.395-9.8-9.8zM57.1 142.6c0-9.457 7.695-17.15 17.15-17.15 9.455 0 17.15 7.693 17.15 17.15H57.1zm26.034-20.166c3.525-2.688 5.816-6.919 5.816-11.684 0-3.768-1.436-7.196-3.773-9.8h17.348c-2.34 2.604-3.775 6.032-3.775 9.8 0 4.765 2.29 8.996 5.816 11.684a22.16 22.16 0 0 0-10.716 10.109 22.16 22.16 0 0 0-10.716-10.109zM130.6 142.6H96.3c0-9.457 7.695-17.15 17.15-17.15 9.455 0 17.15 7.693 17.15 17.15zm-7.35-31.85c0 5.405-4.395 9.8-9.8 9.8-5.405 0-9.8-4.395-9.8-9.8 0-5.405 4.395-9.8 9.8-9.8 5.405 0 9.8 4.395 9.8 9.8zm-4.9-34.3H111v4.9h4.9v14.7H32.6V78.9a2.45 2.45 0 0 0-2.45-2.45H22.8v-4.9h102.9v4.9h-7.35zM88.693 39.7c2.77 0 5.488.953 7.651 2.685l8.222 6.578a2.45 2.45 0 0 0 3.526-.49l10.792-15.109 5.863 4.396-12.022 16.532a7.279 7.279 0 0 1-5.037 2.972 7.271 7.271 0 0 1-5.61-1.646l-6.66-5.55a2.46 2.46 0 0 0-2.607-.338 2.455 2.455 0 0 0-1.411 2.22v14.7H76.7V44.6h-4.9v22.05H57.1v-14.7c0-.95-.551-1.815-1.411-2.22a2.457 2.457 0 0 0-2.607.338l-6.66 5.55a7.262 7.262 0 0 1-5.61 1.646 7.284 7.284 0 0 1-5.037-2.972L23.753 37.76l5.863-4.396 10.792 15.11a2.446 2.446 0 0 0 3.526.49l8.222-6.579a12.278 12.278 0 0 1 7.649-2.685h28.888zM64.45 25c0-5.405 4.395-9.8 9.8-9.8 5.405 0 9.8 4.395 9.8 9.8 0 5.405-4.395 9.8-9.8 9.8-5.405 0-9.8-4.395-9.8-9.8zm78.4 63.7H120.8v-7.35h7.35a2.45 2.45 0 0 0 2.45-2.45v-9.8a2.45 2.45 0 0 0-2.45-2.45H96.3v-9.47l2.639 2.2a12.305 12.305 0 0 0 9.351 2.747c3.35-.414 6.41-2.22 8.396-4.951l13.444-18.483a2.449 2.449 0 0 0-.512-3.4l-9.8-7.35a2.433 2.433 0 0 0-1.845-.461c-.652.1-1.235.46-1.617.997L105.61 43.522l-6.201-4.961A17.208 17.208 0 0 0 88.695 34.8h-3.518c2.337-2.604 3.773-6.032 3.773-9.8 0-8.107-6.593-14.7-14.7-14.7s-14.7 6.593-14.7 14.7c0 3.768 1.436 7.196 3.773 9.8h-3.518a17.21 17.21 0 0 0-10.714 3.758l-6.201 4.964-10.748-15.045a2.448 2.448 0 0 0-3.462-.537l-9.8 7.35a2.449 2.449 0 0 0-.512 3.4l13.443 18.483a12.302 12.302 0 0 0 8.396 4.952c3.33.414 6.757-.583 9.352-2.747l2.641-2.197v9.469H20.35a2.45 2.45 0 0 0-2.45 2.45v9.8a2.45 2.45 0 0 0 2.45 2.45h7.35v7.35H5.65V5.4h137.2v83.3z" opacity=".69"/>
        <path fill="#A9A9A9" d="M130.291 9.756h4.9v4.9h-4.9zM119.947 9.756h4.9v4.9h-4.9zM110.147 9.756h4.9v4.9h-4.9zM98.169 76.722h4.9v4.9h-4.9z"/>
    </g>
</svg>
