<svg xmlns="http://www.w3.org/2000/svg" width="121" height="120" viewBox="0 0 121 120">
    <g fill="none" fill-rule="evenodd">
        <path fill="#5A0C07" fill-rule="nonzero" d="M104.175 79.959l-42.888 7.187-12.182-11.738a2.195 2.195 0 0 0-1.529-.61H25.951c0-1.153-.967-2.084-2.163-2.084H0v4.167h12.975v29.173H0v4.167h23.788c1.196 0 2.163-.931 2.163-2.084h5.977l23.12 11.14a7.29 7.29 0 0 0 3.162.723c1.23 0 2.459-.31 3.56-.93l47.178-26.52c2.163-1.214 3.506-3.466 3.506-5.88 0-2.014-.92-3.915-2.52-5.213-1.596-1.298-3.704-1.842-5.759-1.498zm-82.55 26.095h-4.324V76.88h4.325v29.173zm85.143-17.104l-47.176 26.52c-.8.45-1.776.48-2.608.08l-23.577-11.36c-.3-.145-.633-.22-.968-.22H25.95V78.965h20.73l17.04 16.418a3.765 3.765 0 0 1 1.156 2.694c0 2.1-1.773 3.81-3.953 3.81-1.04 0-2.061-.407-2.796-1.116L46.943 89.994l-3.058 2.947 11.185 10.777c1.563 1.506 3.642 2.336 5.854 2.336 4.563 0 8.278-3.58 8.278-7.977 0-2.13-.86-4.134-2.424-5.64l-1.752-1.689 39.887-6.684a2.786 2.786 0 0 1 2.236.581 2.6 2.6 0 0 1 .98 2.024c0 .935-.522 1.81-1.36 2.281zM121 14.359v-4.172h-13.583c-.394-.394-.94 0-1.555 0h-8.65c-1.196 0-2.163 0-2.163 2.086h-5.977L65.95.8c-2.143-1.035-4.656-1.116-6.72.046L12.053 27.312c-2.163 1.216-3.506 3.431-3.506 5.847 0 2.017.92 3.896 2.518 5.195a7.204 7.204 0 0 0 5.76 1.485l42.887-7.196 12.181 12.071c.407.39.956.932 1.532.932h21.625s.967 2.086 2.163 2.086H121v-4.171h-12.975V14.359H121zM74.319 41.475L57.282 24.72c-.748-.721-1.159-1.842-1.159-2.86 0-2.104 1.773-3.896 3.953-3.896 1.055 0 2.048.357 2.796 1.079l11.185 10.765 3.058-2.96L65.932 16.06c-1.563-1.512-3.644-2.345-5.856-2.345-4.563 0-8.278 3.582-8.278 7.985 0 2.13.858 4.134 2.424 5.646l1.75 1.688-39.887 6.691a2.807 2.807 0 0 1-2.238-.582 2.613 2.613 0 0 1-.975-2.025c0-.939.52-1.815 1.36-2.286L61.408 4.288a2.83 2.83 0 0 1 2.608-.079l23.577 11.693c.3.144.633.543.968.543h6.488v25.03H74.32zm25.055-27.116h4.325V43.56h-4.325V14.359z" opacity=".899"/>
        <path fill="#E22F15" fill-rule="nonzero" d="M60.5 49.903c-3.507-2.97-8.987-2.893-12.393.241-1.726 1.591-2.676 3.712-2.676 5.976 0 2.262.95 4.382 2.676 5.971L59.015 72.14c.417.383.951.575 1.485.575a2.19 2.19 0 0 0 1.483-.573l10.908-10.048c1.728-1.59 2.678-3.711 2.678-5.973 0-2.264-.95-4.385-2.676-5.976v-.002c-3.408-3.135-8.888-3.207-12.393-.24z"/>
        <path fill="#5A0C07" d="M35.535 44.126l-3.55-2.193a31.038 31.038 0 0 0-2.297 3.607l3.835 1.746a26.638 26.638 0 0 1 2.012-3.16zM26.989 67.285c.32 1.39.744 2.77 1.26 4.09l4.138-1.326a25.976 25.976 0 0 1-1.102-3.58l-4.296.816zM26.539 53.655l4.339.769c.263-1.224.619-2.44 1.059-3.617l-4.189-1.29a30.013 30.013 0 0 0-1.209 4.138zM26.09 60.03c.001.814.032 1.622.092 2.424l4.405-.296a31.142 31.142 0 0 1-.08-2.135c0-.594.019-1.185.056-1.773l-4.41-.257c-.042.674-.064 1.35-.064 2.036zM89.063 50.395c.457 1.175.825 2.38 1.1 3.583l4.298-.81a30.208 30.208 0 0 0-1.257-4.097l-4.14 1.324zM85.914 76.317l3.546 2.196a30.71 30.71 0 0 0 2.302-3.608l-3.835-1.745a26.358 26.358 0 0 1-2.013 3.157zM89.063 69.639l4.187 1.29a29.647 29.647 0 0 0 1.211-4.138l-4.337-.769a26.105 26.105 0 0 1-1.06 3.617zM95.36 60.438c.003-.821-.03-1.636-.092-2.445l-4.406.305c.053.702.082 1.413.08 2.134 0 .592-.018 1.18-.055 1.764l4.41.258c.041-.671.063-1.345.063-2.016z"/>
    </g>
</svg>
