<svg xmlns="http://www.w3.org/2000/svg" width="149" height="137" viewBox="0 0 149 137">
    <g fill="none" fill-rule="evenodd">
        <circle cx="114.5" cy="35" r="34.5" fill="#EECF9B" fill-rule="nonzero"/>
        <g fill="#B1B1B1" opacity=".9">
            <path fill-rule="nonzero" d="M126.4 64.853c-1.583-3.964-6.096-5.9-10.08-4.326-.205.08-.407.17-.604.268l-5.757 2.868-11.752-15.585a2.133 2.133 0 0 0-.523-.493l-12.82-8.502a2.142 2.142 0 0 0-.855-.331L56.23 34.5a2.144 2.144 0 0 0-1.834.595l-15.93 15.786a6.776 6.776 0 0 0-.017 9.619l.018.018a6.888 6.888 0 0 0 9.34.306L60.716 49.59l11.453 3.256-9.586 20.951-14.705 20.896-17.479 15.646a7.53 7.53 0 0 0-.813 10.658c2.735 3.166 7.532 3.528 10.715.809l19.257-15.687 11.51-11.45 14.599 10.894-3.248 22.547a7.315 7.315 0 0 0 1.73 5.853 7.477 7.477 0 0 0 5.725 2.536c3.628.005 6.746-2.559 7.423-6.104l5.586-29.638a2.119 2.119 0 0 0-.693-1.99L86.186 84.85l6.812-18.633 12.577 14.299c.615.698 1.616.919 2.47.544l14.427-6.347c3.793-1.671 5.54-6.058 3.928-9.86zm-5.656 5.968l-12.99 5.714-13.923-15.829a2.145 2.145 0 0 0-3.015-.198c-.27.236-.477.535-.6.872l-8.547 23.38a2.118 2.118 0 0 0 .6 2.326l16.178 14.081-5.368 28.446a3.304 3.304 0 0 1-3.348 2.635 3.107 3.107 0 0 1-3.084-3.537l3.42-23.792a2.12 2.12 0 0 0-.834-2.003L72.139 90.163a2.145 2.145 0 0 0-2.793.198l-12.662 12.61-19.099 15.544a3.333 3.333 0 0 1-4.675-.436 3.29 3.29 0 0 1 .35-4.576L50.92 97.694c.12-.108.228-.229.32-.361l14.957-21.255c.076-.107.141-.22.195-.338l10.684-23.38a2.12 2.12 0 0 0-1.357-2.923L60.76 45.186a2.132 2.132 0 0 0-1.996.444L44.983 57.626a2.577 2.577 0 0 1-3.63-.122 2.545 2.545 0 0 1 .123-3.61l15.171-15.03 26.242 4.018 12.113 8.038 12.607 16.713a2.144 2.144 0 0 0 2.665.627l7.352-3.666a3.467 3.467 0 0 1 2.778-.143 3.58 3.58 0 0 1 2.075 2.126 3.292 3.292 0 0 1-1.735 4.244z"/>
            <path d="M14.268 32.604h27.813v4.212H14.268zM5.783 32.604h4.243v4.212H5.783zM21.637 49.452h4.233v4.212h-4.233zM0 49.452h17.404v4.212H0zM10.348 66.3h21.637v4.212H10.348zM4.233 83.148h36.219v4.212H4.233zM8.467 100.464h17.404v4.212H8.467zM0 100.464h4.233v4.212H0zM4.233 117.312h14.581v4.212H4.233z"/>
            <path fill-rule="nonzero" d="M107.415 19.5h-9.813c-6.625 0-11.995 5.343-11.995 11.934 0 6.591 5.37 11.934 11.995 11.934 6.624 0 11.994-5.343 11.994-11.934V21.67c0-1.198-.976-2.17-2.18-2.17zm-2.18 11.934c.016 4.177-3.374 7.577-7.573 7.594a7.617 7.617 0 0 1-6.027-2.916 20.03 20.03 0 0 1 13.6-5.737v1.059zm0-5.399A24.375 24.375 0 0 0 90 31.735c0-.101-.031-.197-.031-.301 0-4.194 3.417-7.594 7.633-7.594h7.633v2.195z"/>
        </g>
    </g>
</svg>
