<svg xmlns="http://www.w3.org/2000/svg" width="161" height="145" viewBox="0 0 161 145">
    <g fill="none" fill-rule="evenodd">
        <ellipse cx="125.5" cy="36.5" fill="#EECF9B" fill-rule="nonzero" rx="35.5" ry="36"/>
        <path fill="#B1B1B1" d="M52.926 60.827a2.637 2.637 0 0 1-1.011-.201 2.697 2.697 0 0 1-.857-.576 2.755 2.755 0 0 1-.57-.858 2.607 2.607 0 0 1-.2-1.016 2.671 2.671 0 0 1 .77-1.874 2.663 2.663 0 0 1 2.382-.725 2.72 2.72 0 0 1 .95.396 2.608 2.608 0 0 1 .97 1.19 2.755 2.755 0 0 1 .203 1.013 2.688 2.688 0 0 1-.772 1.874 2.755 2.755 0 0 1-.401.332 2.72 2.72 0 0 1-.95.396c-.17.033-.343.049-.514.049z"/>
        <path fill="#A9A9A9" fill-rule="nonzero" d="M128.251 112.68L97.65 81.821l.013-9.77a37.917 37.917 0 0 0-.296-4.769 13.976 13.976 0 0 0 6.868-12.05c0-7.686-6.192-13.94-13.804-13.94-1.83 0-3.579.361-5.179 1.018L75.834 28.7a9.662 9.662 0 0 0-6.315-4.176 9.593 9.593 0 0 0-7.395 1.65c-4.064 2.905-5.245 8.56-2.769 13L41.073 20.715c-3.781-3.82-9.898-3.895-13.636-.169a9.633 9.633 0 0 0-2.467 4.19c-3.67-2.531-8.766-2.206-12.07 1.009-1.83 1.778-2.85 4.2-2.875 6.82a10.116 10.116 0 0 0 1.651 5.618 9.51 9.51 0 0 0-4.182 2.501c-3.393 3.472-3.602 8.976-.67 12.81a9.487 9.487 0 0 0-4.016 2.415A9.667 9.667 0 0 0 0 62.755a9.669 9.669 0 0 0 2.887 6.922l5.21 4.83a15.953 15.953 0 0 0-.752 4.86c0 3.021.85 5.958 2.43 8.481-3.481 3.777-5.505 8.778-5.505 13.79 0 6.49 3.226 12.526 8.518 16.117.013 8.745 7.062 15.856 15.725 15.856 5.346 0 10.17-2.68 13.036-6.977 4.08 4.43 9.787 6.977 15.94 6.977 7.942 0 15.14-4.382 18.957-11.125l21.044 21.258a2.535 2.535 0 0 0 3.616 0l27.145-27.414a2.599 2.599 0 0 0 0-3.65zm-29.13-57.446c0 4.84-3.898 8.777-8.691 8.777-4.792 0-8.692-3.938-8.692-8.777 0-4.84 3.9-8.778 8.692-8.778 4.793 0 8.692 3.937 8.692 8.778zM11.134 44.31a4.445 4.445 0 0 1 6.061-.279l20.364 20.565a2.54 2.54 0 0 0 3.616 0 2.602 2.602 0 0 0 0-3.652l-24.659-24.9a4.84 4.84 0 0 1-1.378-3.433c.011-1.221.477-2.34 1.31-3.15a4.464 4.464 0 0 1 6.267.061L44.595 51.62a2.536 2.536 0 0 0 3.616 0 2.6 2.6 0 0 0 0-3.65L30.745 30.33a4.554 4.554 0 0 1 .284-6.111c1.744-1.739 4.628-1.673 6.429.145l29.816 30.111c1.305 1.317 3.305 1.44 4.757.29 1.452-1.15 1.812-3.141.854-4.735a2.477 2.477 0 0 0-.077-.12l-8.951-13.184c-1.263-2.167-.733-4.94 1.222-6.339a4.551 4.551 0 0 1 3.514-.783 4.59 4.59 0 0 1 3.008 1.993l.028.042 9.322 13.47a13.966 13.966 0 0 0-4.325 10.125c0 7.686 6.192 13.94 13.804 13.94.673 0 1.335-.05 1.983-.144.092 1.003.137 2.01.136 3.015l-.015 10.842a2.591 2.591 0 0 0 .749 1.828l11.704 11.82-23.504 23.736-2.312-2.335c5.01-3.385 8.04-9.033 8.04-15.224 0-7.675-4.897-14.7-11.874-17.365-1.583-12.394-11.935-21.86-24.294-21.86-5.745 0-11.38 2.062-15.868 5.738a15.64 15.64 0 0 0-11.32-5.72L11.277 50.805c-1.802-1.82-1.865-4.732-.144-6.493zM6.39 65.915a4.509 4.509 0 0 1-1.276-3.16c0-1.208.465-2.342 1.31-3.196a4.45 4.45 0 0 1 6.033-.262l5.134 5.183a15.824 15.824 0 0 0-7.043 5.29l-4.158-3.855zm51.1 62.534c-5.85 0-11.174-3.01-14.242-8.05a2.548 2.548 0 0 0-2.49-1.21 2.562 2.562 0 0 0-2.124 1.783c-1.403 4.472-5.47 7.477-10.12 7.477-5.852 0-10.614-4.808-10.614-10.717 0-.372.02-.746.057-1.114a2.59 2.59 0 0 0-1.3-2.52c-4.486-2.52-7.273-7.295-7.273-12.46 0-4.236 2.085-8.656 5.44-11.534a2.602 2.602 0 0 0 .267-3.67 10.765 10.765 0 0 1-2.634-7.067c0-5.91 4.761-10.717 10.613-10.717 3.942 0 7.538 2.187 9.386 5.708a2.541 2.541 0 0 0 4.1.582c3.812-3.998 9.093-6.291 14.487-6.291 10.243 0 18.744 8.252 19.356 18.786a2.575 2.575 0 0 0 1.904 2.346c5.677 1.503 9.797 6.941 9.797 12.931 0 5.004-2.76 9.517-7.2 11.774a2.578 2.578 0 0 0-1.315 1.617c-1.996 7.269-8.615 12.346-16.095 12.346zm41.808 9.819l-14.202-14.344 23.53-23.762 14.204 14.343-23.532 23.763z" opacity=".9"/>
        <path fill="#A9A9A9" fill-rule="nonzero" d="M86.8 32.734c-5.553 0-10.071-4.539-10.071-10.117 0-5.579 4.518-10.117 10.07-10.117 5.554 0 10.07 4.538 10.07 10.117 0 5.578-4.516 10.117-10.07 10.117zm0-15.083c-2.726 0-4.944 2.227-4.944 4.966 0 2.738 2.218 4.966 4.944 4.966 2.725 0 4.943-2.228 4.943-4.966 0-2.739-2.218-4.966-4.943-4.966zM112.215 45.74c-5.552 0-10.07-4.538-10.07-10.116 0-5.579 4.518-10.117 10.07-10.117 5.553 0 10.071 4.538 10.071 10.117 0 5.578-4.518 10.117-10.07 10.117zm0-15.082c-2.725 0-4.943 2.228-4.943 4.966s2.218 4.966 4.943 4.966c2.726 0 4.944-2.228 4.944-4.966-.001-2.738-2.218-4.966-4.944-4.966z"/>
    </g>
</svg>
